<?xml version="1.0" encoding="us-ascii" standalone="no"?><svg xmlns="http://www.w3.org/2000/svg" xmlns:xlink="http://www.w3.org/1999/xlink" contentStyleType="text/css" height="793px" preserveAspectRatio="none" style="width:663px;height:793px;background:#FFFFFF;" version="1.1" viewBox="0 0 663 793" width="663px" zoomAndPan="magnify"><defs/><g><!--cluster Contraintes--><g id="cluster_Contraintes"><rect fill="none" height="197" rx="3.5" ry="3.5" style="stroke:#696969;stroke-width:1.0;" width="170" x="425.0921" y="160"/><text fill="#000000" font-family="Serif" font-size="14" font-weight="bold" lengthAdjust="spacing" textLength="73" x="473.5921" y="176.6699">Contraintes</text></g><!--cluster ecore--><g id="cluster_ecore"><rect fill="none" height="129" rx="3.5" ry="3.5" style="stroke:#696969;stroke-width:1.0;" width="122" x="449.0921" y="204"/><text fill="#696969" font-family="Serif" font-size="14" font-style="italic" lengthAdjust="spacing" textLength="75" x="472.5921" y="220.6699">&#171;metamodel&#187;</text><text fill="#000000" font-family="Serif" font-size="14" font-weight="bold" lengthAdjust="spacing" textLength="33" x="493.5921" y="238.416">ecore</text></g><!--class Contrainte--><g id="elem_Contrainte"><rect codeLine="63" fill="#F1F1F1" height="58.957" id="Contrainte" rx="3.5" ry="3.5" style="stroke:#181818;stroke-width:0.5;" width="90" x="465.0921" y="258"/><ellipse cx="480.0921" cy="279.4785" fill="#ADD1B2" rx="11" ry="11" style="stroke:#181818;stroke-width:1.0;"/><path d="M482.8578,275.3535 Q483.014,275.1348 483.2015,275.0254 Q483.389,274.916 483.6078,274.916 Q483.9828,274.916 484.2171,275.1816 Q484.4515,275.4316 484.4515,276.041 L484.4515,277.4941 Q484.4515,278.1035 484.2171,278.3691 Q483.9828,278.6348 483.6078,278.6348 Q483.264,278.6348 483.0609,278.4316 Q482.8578,278.2441 482.7484,277.7285 Q482.7015,277.3691 482.514,277.1816 Q482.1859,276.8066 481.5765,276.5879 Q480.9671,276.3691 480.3421,276.3691 Q479.5765,276.3691 478.9359,276.6973 Q478.3109,277.0254 477.8109,277.7754 Q477.3265,278.5254 477.3265,279.5566 L477.3265,280.6504 Q477.3265,281.8848 478.2171,282.7129 Q479.1078,283.5254 480.7015,283.5254 Q481.639,283.5254 482.2953,283.2754 Q482.6859,283.1191 483.1078,282.6816 Q483.3734,282.416 483.514,282.3379 Q483.6703,282.2598 483.8734,282.2598 Q484.2015,282.2598 484.4515,282.5254 Q484.7171,282.7754 484.7171,283.1191 Q484.7171,283.4629 484.3734,283.8691 Q483.8734,284.4473 483.0765,284.7754 Q481.9984,285.2285 480.7015,285.2285 Q479.1859,285.2285 477.9828,284.6035 Q476.9984,284.1035 476.3109,283.041 Q475.6234,281.9629 475.6234,280.6816 L475.6234,279.5254 Q475.6234,278.1973 476.2328,277.0566 Q476.8578,275.9004 477.9515,275.291 Q479.0453,274.666 480.2796,274.666 Q481.014,274.666 481.6546,274.8379 Q482.3109,274.9941 482.8578,275.3535 Z " fill="#000000"/><text fill="#000000" font-family="Serif" font-size="12" font-style="italic" lengthAdjust="spacing" textLength="50" x="498.0921" y="275.5742">&#171;external&#187;</text><text fill="#000000" font-family="Serif" font-size="14" lengthAdjust="spacing" textLength="58" x="494.0921" y="292.8809">Contrainte</text><line style="stroke:#181818;stroke-width:0.5;" x1="466.0921" x2="554.0921" y1="300.957" y2="300.957"/><line style="stroke:#181818;stroke-width:0.5;" x1="466.0921" x2="554.0921" y1="308.957" y2="308.957"/></g><!--class Catalogue--><g id="elem_Catalogue"><rect codeLine="9" fill="#F1F1F1" height="65.7461" id="Catalogue" rx="3.5" ry="3.5" style="stroke:#181818;stroke-width:0.5;" width="96" x="290.0921" y="42.5"/><ellipse cx="309.1421" cy="58.5" fill="#ADD1B2" rx="11" ry="11" style="stroke:#181818;stroke-width:1.0;"/><path d="M311.9078,54.375 Q312.064,54.1563 312.2515,54.0469 Q312.439,53.9375 312.6578,53.9375 Q313.0328,53.9375 313.2671,54.2031 Q313.5015,54.4531 313.5015,55.0625 L313.5015,56.5156 Q313.5015,57.125 313.2671,57.3906 Q313.0328,57.6563 312.6578,57.6563 Q312.314,57.6563 312.1109,57.4531 Q311.9078,57.2656 311.7984,56.75 Q311.7515,56.3906 311.564,56.2031 Q311.2359,55.8281 310.6265,55.6094 Q310.0171,55.3906 309.3921,55.3906 Q308.6265,55.3906 307.9859,55.7188 Q307.3609,56.0469 306.8609,56.7969 Q306.3765,57.5469 306.3765,58.5781 L306.3765,59.6719 Q306.3765,60.9063 307.2671,61.7344 Q308.1578,62.5469 309.7515,62.5469 Q310.689,62.5469 311.3453,62.2969 Q311.7359,62.1406 312.1578,61.7031 Q312.4234,61.4375 312.564,61.3594 Q312.7203,61.2813 312.9234,61.2813 Q313.2515,61.2813 313.5015,61.5469 Q313.7671,61.7969 313.7671,62.1406 Q313.7671,62.4844 313.4234,62.8906 Q312.9234,63.4688 312.1265,63.7969 Q311.0484,64.25 309.7515,64.25 Q308.2359,64.25 307.0328,63.625 Q306.0484,63.125 305.3609,62.0625 Q304.6734,60.9844 304.6734,59.7031 L304.6734,58.5469 Q304.6734,57.2188 305.2828,56.0781 Q305.9078,54.9219 307.0015,54.3125 Q308.0953,53.6875 309.3296,53.6875 Q310.064,53.6875 310.7046,53.8594 Q311.3609,54.0156 311.9078,54.375 Z " fill="#000000"/><text fill="#000000" font-family="Serif" font-size="14" lengthAdjust="spacing" textLength="55" x="324.0421" y="64.2969">Catalogue</text><line style="stroke:#181818;stroke-width:0.5;" x1="291.0921" x2="385.0921" y1="74.5" y2="74.5"/><ellipse cx="301.0921" cy="88.873" fill="none" rx="3" ry="3" style="stroke:#038048;stroke-width:1.0;"/><text fill="#000000" font-family="Serif" font-size="14" lengthAdjust="spacing" textLength="70" x="310.0921" y="93.1699">nom : String</text><line style="stroke:#181818;stroke-width:0.5;" x1="291.0921" x2="385.0921" y1="100.2461" y2="100.2461"/></g><!--class Composant--><g id="elem_Composant"><rect codeLine="13" fill="#F1F1F1" height="65.7461" id="Composant" rx="3.5" ry="3.5" style="stroke:#181818;stroke-width:0.5;" width="96" x="237.0921" y="254.5"/><ellipse cx="252.0921" cy="270.5" fill="#ADD1B2" rx="11" ry="11" style="stroke:#181818;stroke-width:1.0;"/><path d="M254.8578,266.375 Q255.014,266.1563 255.2015,266.0469 Q255.389,265.9375 255.6078,265.9375 Q255.9828,265.9375 256.2171,266.2031 Q256.4515,266.4531 256.4515,267.0625 L256.4515,268.5156 Q256.4515,269.125 256.2171,269.3906 Q255.9828,269.6563 255.6078,269.6563 Q255.264,269.6563 255.0609,269.4531 Q254.8578,269.2656 254.7484,268.75 Q254.7015,268.3906 254.514,268.2031 Q254.1859,267.8281 253.5765,267.6094 Q252.9671,267.3906 252.3421,267.3906 Q251.5765,267.3906 250.9359,267.7188 Q250.3109,268.0469 249.8109,268.7969 Q249.3265,269.5469 249.3265,270.5781 L249.3265,271.6719 Q249.3265,272.9063 250.2171,273.7344 Q251.1078,274.5469 252.7015,274.5469 Q253.639,274.5469 254.2953,274.2969 Q254.6859,274.1406 255.1078,273.7031 Q255.3734,273.4375 255.514,273.3594 Q255.6703,273.2813 255.8734,273.2813 Q256.2015,273.2813 256.4515,273.5469 Q256.7171,273.7969 256.7171,274.1406 Q256.7171,274.4844 256.3734,274.8906 Q255.8734,275.4688 255.0765,275.7969 Q253.9984,276.25 252.7015,276.25 Q251.1859,276.25 249.9828,275.625 Q248.9984,275.125 248.3109,274.0625 Q247.6234,272.9844 247.6234,271.7031 L247.6234,270.5469 Q247.6234,269.2188 248.2328,268.0781 Q248.8578,266.9219 249.9515,266.3125 Q251.0453,265.6875 252.2796,265.6875 Q253.014,265.6875 253.6546,265.8594 Q254.3109,266.0156 254.8578,266.375 Z " fill="#000000"/><text fill="#000000" font-family="Serif" font-size="14" lengthAdjust="spacing" textLength="64" x="266.0921" y="276.2969">Composant</text><line style="stroke:#181818;stroke-width:0.5;" x1="238.0921" x2="332.0921" y1="286.5" y2="286.5"/><ellipse cx="248.0921" cy="300.873" fill="none" rx="3" ry="3" style="stroke:#038048;stroke-width:1.0;"/><text fill="#000000" font-family="Serif" font-size="14" lengthAdjust="spacing" textLength="70" x="257.0921" y="305.1699">nom : String</text><line style="stroke:#181818;stroke-width:0.5;" x1="238.0921" x2="332.0921" y1="312.2461" y2="312.2461"/></g><!--class Port--><g id="elem_Port"><rect codeLine="17" fill="#F1F1F1" height="83.4922" id="Port" rx="3.5" ry="3.5" style="stroke:#181818;stroke-width:0.5;" width="162" x="18.0921" y="703.5"/><ellipse cx="82.8421" cy="719.5" fill="#ADD1B2" rx="11" ry="11" style="stroke:#181818;stroke-width:1.0;"/><path d="M85.6078,715.375 Q85.764,715.1563 85.9515,715.0469 Q86.139,714.9375 86.3578,714.9375 Q86.7328,714.9375 86.9671,715.2031 Q87.2015,715.4531 87.2015,716.0625 L87.2015,717.5156 Q87.2015,718.125 86.9671,718.3906 Q86.7328,718.6563 86.3578,718.6563 Q86.014,718.6563 85.8109,718.4531 Q85.6078,718.2656 85.4984,717.75 Q85.4515,717.3906 85.264,717.2031 Q84.9359,716.8281 84.3265,716.6094 Q83.7171,716.3906 83.0921,716.3906 Q82.3265,716.3906 81.6859,716.7188 Q81.0609,717.0469 80.5609,717.7969 Q80.0765,718.5469 80.0765,719.5781 L80.0765,720.6719 Q80.0765,721.9063 80.9671,722.7344 Q81.8578,723.5469 83.4515,723.5469 Q84.389,723.5469 85.0453,723.2969 Q85.4359,723.1406 85.8578,722.7031 Q86.1234,722.4375 86.264,722.3594 Q86.4203,722.2813 86.6234,722.2813 Q86.9515,722.2813 87.2015,722.5469 Q87.4671,722.7969 87.4671,723.1406 Q87.4671,723.4844 87.1234,723.8906 Q86.6234,724.4688 85.8265,724.7969 Q84.7484,725.25 83.4515,725.25 Q81.9359,725.25 80.7328,724.625 Q79.7484,724.125 79.0609,723.0625 Q78.3734,721.9844 78.3734,720.7031 L78.3734,719.5469 Q78.3734,718.2188 78.9828,717.0781 Q79.6078,715.9219 80.7015,715.3125 Q81.7953,714.6875 83.0296,714.6875 Q83.764,714.6875 84.4046,714.8594 Q85.0609,715.0156 85.6078,715.375 Z " fill="#000000"/><text fill="#000000" font-family="Serif" font-size="14" lengthAdjust="spacing" textLength="24" x="103.3421" y="725.2969">Port</text><line style="stroke:#181818;stroke-width:0.5;" x1="19.0921" x2="179.0921" y1="735.5" y2="735.5"/><ellipse cx="29.0921" cy="749.873" fill="none" rx="3" ry="3" style="stroke:#038048;stroke-width:1.0;"/><text fill="#000000" font-family="Serif" font-size="14" lengthAdjust="spacing" textLength="70" x="38.0921" y="754.1699">nom : String</text><ellipse cx="29.0921" cy="767.6191" fill="none" rx="3" ry="3" style="stroke:#038048;stroke-width:1.0;"/><text fill="#000000" font-family="Serif" font-size="14" lengthAdjust="spacing" textLength="136" x="38.0921" y="771.916">direction : DirectionPort</text><line style="stroke:#181818;stroke-width:0.5;" x1="19.0921" x2="179.0921" y1="778.9922" y2="778.9922"/></g><!--class Empreinte--><g id="elem_Empreinte"><rect codeLine="22" fill="#F1F1F1" height="65.7461" id="Empreinte" rx="3.5" ry="3.5" style="stroke:#181818;stroke-width:0.5;" width="96" x="101.0921" y="380.5"/><ellipse cx="119.2421" cy="396.5" fill="#ADD1B2" rx="11" ry="11" style="stroke:#181818;stroke-width:1.0;"/><path d="M122.0078,392.375 Q122.164,392.1563 122.3515,392.0469 Q122.539,391.9375 122.7578,391.9375 Q123.1328,391.9375 123.3671,392.2031 Q123.6015,392.4531 123.6015,393.0625 L123.6015,394.5156 Q123.6015,395.125 123.3671,395.3906 Q123.1328,395.6563 122.7578,395.6563 Q122.414,395.6563 122.2109,395.4531 Q122.0078,395.2656 121.8984,394.75 Q121.8515,394.3906 121.664,394.2031 Q121.3359,393.8281 120.7265,393.6094 Q120.1171,393.3906 119.4921,393.3906 Q118.7265,393.3906 118.0859,393.7188 Q117.4609,394.0469 116.9609,394.7969 Q116.4765,395.5469 116.4765,396.5781 L116.4765,397.6719 Q116.4765,398.9063 117.3671,399.7344 Q118.2578,400.5469 119.8515,400.5469 Q120.789,400.5469 121.4453,400.2969 Q121.8359,400.1406 122.2578,399.7031 Q122.5234,399.4375 122.664,399.3594 Q122.8203,399.2813 123.0234,399.2813 Q123.3515,399.2813 123.6015,399.5469 Q123.8671,399.7969 123.8671,400.1406 Q123.8671,400.4844 123.5234,400.8906 Q123.0234,401.4688 122.2265,401.7969 Q121.1484,402.25 119.8515,402.25 Q118.3359,402.25 117.1328,401.625 Q116.1484,401.125 115.4609,400.0625 Q114.7734,398.9844 114.7734,397.7031 L114.7734,396.5469 Q114.7734,395.2188 115.3828,394.0781 Q116.0078,392.9219 117.1015,392.3125 Q118.1953,391.6875 119.4296,391.6875 Q120.164,391.6875 120.8046,391.8594 Q121.4609,392.0156 122.0078,392.375 Z " fill="#000000"/><text fill="#000000" font-family="Serif" font-size="14" lengthAdjust="spacing" textLength="57" x="133.9421" y="402.2969">Empreinte</text><line style="stroke:#181818;stroke-width:0.5;" x1="102.0921" x2="196.0921" y1="412.5" y2="412.5"/><ellipse cx="112.0921" cy="426.873" fill="none" rx="3" ry="3" style="stroke:#038048;stroke-width:1.0;"/><text fill="#000000" font-family="Serif" font-size="14" lengthAdjust="spacing" textLength="70" x="121.0921" y="431.1699">nom : String</text><line style="stroke:#181818;stroke-width:0.5;" x1="102.0921" x2="196.0921" y1="438.2461" y2="438.2461"/></g><!--class Pad--><g id="elem_Pad"><rect codeLine="26" fill="#F1F1F1" height="136.7305" id="Pad" rx="3.5" ry="3.5" style="stroke:#181818;stroke-width:0.5;" width="129" x="93.5921" y="506.5"/><ellipse cx="143.3421" cy="522.5" fill="#ADD1B2" rx="11" ry="11" style="stroke:#181818;stroke-width:1.0;"/><path d="M146.1078,518.375 Q146.264,518.1563 146.4515,518.0469 Q146.639,517.9375 146.8578,517.9375 Q147.2328,517.9375 147.4671,518.2031 Q147.7015,518.4531 147.7015,519.0625 L147.7015,520.5156 Q147.7015,521.125 147.4671,521.3906 Q147.2328,521.6563 146.8578,521.6563 Q146.514,521.6563 146.3109,521.4531 Q146.1078,521.2656 145.9984,520.75 Q145.9515,520.3906 145.764,520.2031 Q145.4359,519.8281 144.8265,519.6094 Q144.2171,519.3906 143.5921,519.3906 Q142.8265,519.3906 142.1859,519.7188 Q141.5609,520.0469 141.0609,520.7969 Q140.5765,521.5469 140.5765,522.5781 L140.5765,523.6719 Q140.5765,524.9063 141.4671,525.7344 Q142.3578,526.5469 143.9515,526.5469 Q144.889,526.5469 145.5453,526.2969 Q145.9359,526.1406 146.3578,525.7031 Q146.6234,525.4375 146.764,525.3594 Q146.9203,525.2813 147.1234,525.2813 Q147.4515,525.2813 147.7015,525.5469 Q147.9671,525.7969 147.9671,526.1406 Q147.9671,526.4844 147.6234,526.8906 Q147.1234,527.4688 146.3265,527.7969 Q145.2484,528.25 143.9515,528.25 Q142.4359,528.25 141.2328,527.625 Q140.2484,527.125 139.5609,526.0625 Q138.8734,524.9844 138.8734,523.7031 L138.8734,522.5469 Q138.8734,521.2188 139.4828,520.0781 Q140.1078,518.9219 141.2015,518.3125 Q142.2953,517.6875 143.5296,517.6875 Q144.264,517.6875 144.9046,517.8594 Q145.5609,518.0156 146.1078,518.375 Z " fill="#000000"/><text fill="#000000" font-family="Serif" font-size="14" lengthAdjust="spacing" textLength="21" x="163.8421" y="528.2969">Pad</text><line style="stroke:#181818;stroke-width:0.5;" x1="94.5921" x2="221.5921" y1="538.5" y2="538.5"/><ellipse cx="104.5921" cy="552.873" fill="none" rx="3" ry="3" style="stroke:#038048;stroke-width:1.0;"/><text fill="#000000" font-family="Serif" font-size="14" lengthAdjust="spacing" textLength="58" x="113.5921" y="557.1699">x : Double</text><ellipse cx="104.5921" cy="570.6191" fill="none" rx="3" ry="3" style="stroke:#038048;stroke-width:1.0;"/><text fill="#000000" font-family="Serif" font-size="14" lengthAdjust="spacing" textLength="58" x="113.5921" y="574.916">y : Double</text><ellipse cx="104.5921" cy="588.3652" fill="none" rx="3" ry="3" style="stroke:#038048;stroke-width:1.0;"/><text fill="#000000" font-family="Serif" font-size="14" lengthAdjust="spacing" textLength="90" x="113.5921" y="592.6621">largeur : Double</text><ellipse cx="104.5921" cy="606.1113" fill="none" rx="3" ry="3" style="stroke:#038048;stroke-width:1.0;"/><text fill="#000000" font-family="Serif" font-size="14" lengthAdjust="spacing" textLength="93" x="113.5921" y="610.4082">hauteur : Double</text><ellipse cx="104.5921" cy="623.8574" fill="none" rx="3" ry="3" style="stroke:#038048;stroke-width:1.0;"/><text fill="#000000" font-family="Serif" font-size="14" lengthAdjust="spacing" textLength="103" x="113.5921" y="628.1543">forme : FormePad</text><line style="stroke:#181818;stroke-width:0.5;" x1="94.5921" x2="221.5921" y1="635.2305" y2="635.2305"/></g><!--class TypeMetadonnee--><g id="elem_TypeMetadonnee"><rect codeLine="36" fill="#F1F1F1" height="65.7461" id="TypeMetadonnee" rx="3.5" ry="3.5" style="stroke:#181818;stroke-width:0.5;" width="129" x="287.5921" y="542"/><ellipse cx="302.5921" cy="558" fill="#ADD1B2" rx="11" ry="11" style="stroke:#181818;stroke-width:1.0;"/><path d="M305.3578,553.875 Q305.514,553.6563 305.7015,553.5469 Q305.889,553.4375 306.1078,553.4375 Q306.4828,553.4375 306.7171,553.7031 Q306.9515,553.9531 306.9515,554.5625 L306.9515,556.0156 Q306.9515,556.625 306.7171,556.8906 Q306.4828,557.1563 306.1078,557.1563 Q305.764,557.1563 305.5609,556.9531 Q305.3578,556.7656 305.2484,556.25 Q305.2015,555.8906 305.014,555.7031 Q304.6859,555.3281 304.0765,555.1094 Q303.4671,554.8906 302.8421,554.8906 Q302.0765,554.8906 301.4359,555.2188 Q300.8109,555.5469 300.3109,556.2969 Q299.8265,557.0469 299.8265,558.0781 L299.8265,559.1719 Q299.8265,560.4063 300.7171,561.2344 Q301.6078,562.0469 303.2015,562.0469 Q304.139,562.0469 304.7953,561.7969 Q305.1859,561.6406 305.6078,561.2031 Q305.8734,560.9375 306.014,560.8594 Q306.1703,560.7813 306.3734,560.7813 Q306.7015,560.7813 306.9515,561.0469 Q307.2171,561.2969 307.2171,561.6406 Q307.2171,561.9844 306.8734,562.3906 Q306.3734,562.9688 305.5765,563.2969 Q304.4984,563.75 303.2015,563.75 Q301.6859,563.75 300.4828,563.125 Q299.4984,562.625 298.8109,561.5625 Q298.1234,560.4844 298.1234,559.2031 L298.1234,558.0469 Q298.1234,556.7188 298.7328,555.5781 Q299.3578,554.4219 300.4515,553.8125 Q301.5453,553.1875 302.7796,553.1875 Q303.514,553.1875 304.1546,553.3594 Q304.8109,553.5156 305.3578,553.875 Z " fill="#000000"/><text fill="#000000" font-family="Serif" font-size="14" lengthAdjust="spacing" textLength="97" x="316.5921" y="563.7969">TypeMetadonnee</text><line style="stroke:#181818;stroke-width:0.5;" x1="288.5921" x2="415.5921" y1="574" y2="574"/><ellipse cx="298.5921" cy="588.373" fill="none" rx="3" ry="3" style="stroke:#038048;stroke-width:1.0;"/><text fill="#000000" font-family="Serif" font-size="14" lengthAdjust="spacing" textLength="61" x="307.5921" y="592.6699">cle : String</text><line style="stroke:#181818;stroke-width:0.5;" x1="288.5921" x2="415.5921" y1="599.7461" y2="599.7461"/></g><!--class Metadonnee--><g id="elem_Metadonnee"><rect codeLine="40" fill="#F1F1F1" height="65.7461" id="Metadonnee" rx="3.5" ry="3.5" style="stroke:#181818;stroke-width:0.5;" width="105" x="232.5921" y="380.5"/><ellipse cx="249.8421" cy="396.5" fill="#ADD1B2" rx="11" ry="11" style="stroke:#181818;stroke-width:1.0;"/><path d="M252.6078,392.375 Q252.764,392.1563 252.9515,392.0469 Q253.139,391.9375 253.3578,391.9375 Q253.7328,391.9375 253.9671,392.2031 Q254.2015,392.4531 254.2015,393.0625 L254.2015,394.5156 Q254.2015,395.125 253.9671,395.3906 Q253.7328,395.6563 253.3578,395.6563 Q253.014,395.6563 252.8109,395.4531 Q252.6078,395.2656 252.4984,394.75 Q252.4515,394.3906 252.264,394.2031 Q251.9359,393.8281 251.3265,393.6094 Q250.7171,393.3906 250.0921,393.3906 Q249.3265,393.3906 248.6859,393.7188 Q248.0609,394.0469 247.5609,394.7969 Q247.0765,395.5469 247.0765,396.5781 L247.0765,397.6719 Q247.0765,398.9063 247.9671,399.7344 Q248.8578,400.5469 250.4515,400.5469 Q251.389,400.5469 252.0453,400.2969 Q252.4359,400.1406 252.8578,399.7031 Q253.1234,399.4375 253.264,399.3594 Q253.4203,399.2813 253.6234,399.2813 Q253.9515,399.2813 254.2015,399.5469 Q254.4671,399.7969 254.4671,400.1406 Q254.4671,400.4844 254.1234,400.8906 Q253.6234,401.4688 252.8265,401.7969 Q251.7484,402.25 250.4515,402.25 Q248.9359,402.25 247.7328,401.625 Q246.7484,401.125 246.0609,400.0625 Q245.3734,398.9844 245.3734,397.7031 L245.3734,396.5469 Q245.3734,395.2188 245.9828,394.0781 Q246.6078,392.9219 247.7015,392.3125 Q248.7953,391.6875 250.0296,391.6875 Q250.764,391.6875 251.4046,391.8594 Q252.0609,392.0156 252.6078,392.375 Z " fill="#000000"/><text fill="#000000" font-family="Serif" font-size="14" lengthAdjust="spacing" textLength="68" x="264.3421" y="402.2969">Metadonnee</text><line style="stroke:#181818;stroke-width:0.5;" x1="233.5921" x2="336.5921" y1="412.5" y2="412.5"/><ellipse cx="243.5921" cy="426.873" fill="none" rx="3" ry="3" style="stroke:#038048;stroke-width:1.0;"/><text fill="#000000" font-family="Serif" font-size="14" lengthAdjust="spacing" textLength="79" x="252.5921" y="431.1699">valeur : String</text><line style="stroke:#181818;stroke-width:0.5;" x1="233.5921" x2="336.5921" y1="438.2461" y2="438.2461"/></g><!--class DirectionPort--><g id="elem_DirectionPort"><rect codeLine="46" fill="#F1F1F1" height="136.7305" id="DirectionPort" rx="3.5" ry="3.5" style="stroke:#181818;stroke-width:0.5;" width="108" x="421.0921" y="7"/><ellipse cx="436.0921" cy="23" fill="#EB937F" rx="11" ry="11" style="stroke:#181818;stroke-width:1.0;"/><path d="M434.9515,23.7969 L434.9515,26.2969 L439.2796,26.2969 L439.2796,25.375 Q439.2796,24.7656 439.514,24.5 Q439.764,24.2344 440.139,24.2344 Q440.514,24.2344 440.7484,24.5 Q440.9828,24.7656 440.9828,25.375 L440.9828,28 L432.9828,28 Q432.3578,28 432.0921,27.7656 Q431.8421,27.5313 431.8421,27.1406 Q431.8421,26.7656 432.1078,26.5313 Q432.3734,26.2969 432.9828,26.2969 L433.2484,26.2969 L433.2484,19.6406 L432.9828,19.6406 Q432.3578,19.6406 432.0921,19.4063 Q431.8421,19.1719 431.8421,18.7813 Q431.8421,18.4063 432.0921,18.1719 Q432.3578,17.9375 432.9828,17.9375 L440.6078,17.9375 L440.6078,20.5313 Q440.6078,21.1406 440.3734,21.4063 Q440.1546,21.6563 439.764,21.6563 Q439.389,21.6563 439.1546,21.4063 Q438.9203,21.1406 438.9203,20.5313 L438.9203,19.6406 L434.9515,19.6406 L434.9515,22.0938 L436.4359,22.0938 Q436.4359,21.4375 436.5609,21.25 Q436.8265,20.8438 437.2953,20.8438 Q437.6703,20.8438 437.9046,21.1094 Q438.139,21.3594 438.139,21.9688 L438.139,23.9375 Q438.139,24.4844 438.014,24.6719 Q437.7484,25.0625 437.2953,25.0625 Q436.8265,25.0625 436.5609,24.6563 Q436.4359,24.4688 436.4359,23.7969 L434.9515,23.7969 Z " fill="#000000"/><text fill="#000000" font-family="Serif" font-size="14" lengthAdjust="spacing" textLength="76" x="450.0921" y="28.7969">DirectionPort</text><line style="stroke:#181818;stroke-width:0.5;" x1="422.0921" x2="528.0921" y1="39" y2="39"/><text fill="#000000" font-family="Serif" font-size="14" lengthAdjust="spacing" textLength="15" x="427.0921" y="57.6699">IN</text><text fill="#000000" font-family="Serif" font-size="14" lengthAdjust="spacing" textLength="28" x="427.0921" y="75.416">OUT</text><text fill="#000000" font-family="Serif" font-size="14" lengthAdjust="spacing" textLength="43" x="427.0921" y="93.1621">INOUT</text><text fill="#000000" font-family="Serif" font-size="14" lengthAdjust="spacing" textLength="48" x="427.0921" y="110.9082">POWER</text><text fill="#000000" font-family="Serif" font-size="14" lengthAdjust="spacing" textLength="55" x="427.0921" y="128.6543">PASSIVE</text><line style="stroke:#181818;stroke-width:0.5;" x1="422.0921" x2="528.0921" y1="135.7305" y2="135.7305"/></g><!--class FormePad--><g id="elem_FormePad"><rect codeLine="54" fill="#F1F1F1" height="101.2383" id="FormePad" rx="3.5" ry="3.5" style="stroke:#181818;stroke-width:0.5;" width="92" x="564.0921" y="25"/><ellipse cx="579.9921" cy="41" fill="#EB937F" rx="11" ry="11" style="stroke:#181818;stroke-width:1.0;"/><path d="M578.8515,41.7969 L578.8515,44.2969 L583.1796,44.2969 L583.1796,43.375 Q583.1796,42.7656 583.414,42.5 Q583.664,42.2344 584.039,42.2344 Q584.414,42.2344 584.6484,42.5 Q584.8828,42.7656 584.8828,43.375 L584.8828,46 L576.8828,46 Q576.2578,46 575.9921,45.7656 Q575.7421,45.5313 575.7421,45.1406 Q575.7421,44.7656 576.0078,44.5313 Q576.2734,44.2969 576.8828,44.2969 L577.1484,44.2969 L577.1484,37.6406 L576.8828,37.6406 Q576.2578,37.6406 575.9921,37.4063 Q575.7421,37.1719 575.7421,36.7813 Q575.7421,36.4063 575.9921,36.1719 Q576.2578,35.9375 576.8828,35.9375 L584.5078,35.9375 L584.5078,38.5313 Q584.5078,39.1406 584.2734,39.4063 Q584.0546,39.6563 583.664,39.6563 Q583.289,39.6563 583.0546,39.4063 Q582.8203,39.1406 582.8203,38.5313 L582.8203,37.6406 L578.8515,37.6406 L578.8515,40.0938 L580.3359,40.0938 Q580.3359,39.4375 580.4609,39.25 Q580.7265,38.8438 581.1953,38.8438 Q581.5703,38.8438 581.8046,39.1094 Q582.039,39.3594 582.039,39.9688 L582.039,41.9375 Q582.039,42.4844 581.914,42.6719 Q581.6484,43.0625 581.1953,43.0625 Q580.7265,43.0625 580.4609,42.6563 Q580.3359,42.4688 580.3359,41.7969 L578.8515,41.7969 Z " fill="#000000"/><text fill="#000000" font-family="Serif" font-size="14" lengthAdjust="spacing" textLength="58" x="594.1921" y="46.7969">FormePad</text><line style="stroke:#181818;stroke-width:0.5;" x1="565.0921" x2="655.0921" y1="57" y2="57"/><text fill="#000000" font-family="Serif" font-size="14" lengthAdjust="spacing" textLength="80" x="570.0921" y="75.6699">RECTANGLE</text><text fill="#000000" font-family="Serif" font-size="14" lengthAdjust="spacing" textLength="51" x="570.0921" y="93.416">CERCLE</text><text fill="#000000" font-family="Serif" font-size="14" lengthAdjust="spacing" textLength="44" x="570.0921" y="111.1621">OVALE</text><line style="stroke:#181818;stroke-width:0.5;" x1="565.0921" x2="655.0921" y1="118.2383" y2="118.2383"/></g><!--reverse link Catalogue to Composant--><g id="link_Catalogue_Composant"><path codeLine="71" d="M311.5921,120.62 C311.5921,160.34 311.5921,214.5 311.5921,254.26 " fill="none" id="Catalogue-backto-Composant" style="stroke:#454645;stroke-width:1.0;"/><polygon fill="#454645" points="311.5921,108.62,307.5921,114.62,311.5921,120.62,315.5921,114.62,311.5921,108.62" style="stroke:#454645;stroke-width:1.0;"/><polygon fill="#000000" points="236.5921,177.6793,239.5311,168.6342,233.6532,168.6342,236.5921,177.6793" style="stroke:#000000;stroke-width:1.0;"/><text fill="#000000" font-family="Serif" font-size="13" lengthAdjust="spacing" textLength="65" x="245.5921" y="178.0621">composants</text><text fill="#000000" font-family="Serif" font-size="13" lengthAdjust="spacing" textLength="6" x="300.1531" y="129.8911">1</text><text fill="#000000" font-family="Serif" font-size="13" lengthAdjust="spacing" textLength="19" x="296.0984" y="243.4519">0..*</text></g><!--reverse link Catalogue to TypeMetadonnee--><g id="link_Catalogue_TypeMetadonnee"><path codeLine="72" d="M361.8421,120.66 C361.8421,211.41 361.8421,451.11 361.8421,541.85 " fill="none" id="Catalogue-backto-TypeMetadonnee" style="stroke:#454645;stroke-width:1.0;"/><polygon fill="#454645" points="361.8421,108.66,357.8421,114.66,361.8421,120.66,365.8421,114.66,361.8421,108.66" style="stroke:#454645;stroke-width:1.0;"/><polygon fill="#000000" points="366.8421,339.4993,369.7811,330.4542,363.9032,330.4542,366.8421,339.4993" style="stroke:#000000;stroke-width:1.0;"/><text fill="#000000" font-family="Serif" font-size="13" lengthAdjust="spacing" textLength="104" x="375.8421" y="339.8821">typesMetadonnees</text><text fill="#000000" font-family="Serif" font-size="13" lengthAdjust="spacing" textLength="6" x="359.6679" y="129.9385">1</text><text fill="#000000" font-family="Serif" font-size="13" lengthAdjust="spacing" textLength="19" x="342.8937" y="531.0604">0..*</text></g><!--reverse link Composant to Metadonnee--><g id="link_Composant_Metadonnee"><path codeLine="75" d="M285.0921,332.61 C285.0921,350.98 285.0921,361.77 285.0921,380.18 " fill="none" id="Composant-backto-Metadonnee" style="stroke:#454645;stroke-width:1.0;"/><polygon fill="#454645" points="285.0921,320.61,281.0921,326.61,285.0921,332.61,289.0921,326.61,285.0921,320.61" style="stroke:#454645;stroke-width:1.0;"/><polygon fill="#000000" points="290.0921,346.6293,293.0311,337.5842,287.1532,337.5842,290.0921,346.6293" style="stroke:#000000;stroke-width:1.0;"/><text fill="#000000" font-family="Serif" font-size="13" lengthAdjust="spacing" textLength="71" x="299.0921" y="347.0121">metadonnees</text><text fill="#000000" font-family="Serif" font-size="13" lengthAdjust="spacing" textLength="6" x="278.539" y="341.8792">1</text><text fill="#000000" font-family="Serif" font-size="13" lengthAdjust="spacing" textLength="19" x="264.2218" y="369.7393">0..*</text></g><!--reverse link Composant to Port--><g id="link_Composant_Port"><path codeLine="76" d="M225.0321,276.5 C157.8121,276.5 55.8421,276.5 55.8421,276.5 C55.8421,276.5 55.8421,588.76 55.8421,703.42 " fill="none" id="Composant-backto-Port" style="stroke:#454645;stroke-width:1.0;"/><polygon fill="#454645" points="237.0321,276.5,231.0321,272.5,225.0321,276.5,231.0321,280.5,237.0321,276.5" style="stroke:#454645;stroke-width:1.0;"/><polygon fill="#000000" points="16,395.2575,22.0646,387.9315,16.6003,385.7659,16,395.2575" style="stroke:#000000;stroke-width:1.0;"/><text fill="#000000" font-family="Serif" font-size="13" lengthAdjust="spacing" textLength="28" x="26.8421" y="395.9921">ports</text><text fill="#000000" font-family="Serif" font-size="13" lengthAdjust="spacing" textLength="6" x="223.2136" y="271.2688">1</text><text fill="#000000" font-family="Serif" font-size="13" lengthAdjust="spacing" textLength="19" x="27.7757" y="692.5193">1..*</text></g><!--reverse link Composant to Empreinte--><g id="link_Composant_Empreinte"><path codeLine="77" d="M224.7621,298.5 C185.6721,298.5 149.0921,298.5 149.0921,298.5 C149.0921,298.5 149.0921,346.27 149.0921,380.24 " fill="none" id="Composant-backto-Empreinte" style="stroke:#454645;stroke-width:1.0;"/><polygon fill="#454645" points="236.7621,298.5,230.7621,294.5,224.7621,298.5,230.7621,302.5,236.7621,298.5" style="stroke:#454645;stroke-width:1.0;"/><polygon fill="#000000" points="86.6655,293.4084,94.9668,288.7674,90.6534,284.7743,86.6655,293.4084" style="stroke:#000000;stroke-width:1.0;"/><text fill="#000000" font-family="Serif" font-size="13" lengthAdjust="spacing" textLength="52" x="99.0621" y="295.1221">empreinte</text><text fill="#000000" font-family="Serif" font-size="13" lengthAdjust="spacing" textLength="6" x="223.223" y="296.6165">1</text><text fill="#000000" font-family="Serif" font-size="13" lengthAdjust="spacing" textLength="18" x="129.2359" y="369.4277">0..1</text></g><!--link Composant to Contrainte--><g id="link_Composant_Contrainte"><path codeLine="78" d="M333.3621,287.5 C372.3521,287.5 426.8321,287.5 464.9721,287.5 " fill="none" id="Composant-Contrainte" style="stroke:#454645;stroke-width:1.0;"/><text fill="#000000" font-family="Serif" font-size="13" lengthAdjust="spacing" textLength="60" x="338.1621" y="302.1221">contraintes</text><text fill="#000000" font-family="Serif" font-size="13" lengthAdjust="spacing" textLength="6" x="341.2129" y="283.9531">1</text><text fill="#000000" font-family="Serif" font-size="13" lengthAdjust="spacing" textLength="19" x="437.9498" y="283.9854">0..*</text></g><!--link Metadonnee to TypeMetadonnee--><g id="link_Metadonnee_TypeMetadonnee"><path codeLine="81" d="M312.5921,446.57 C312.5921,474.44 312.5921,514.12 312.5921,541.97 " fill="none" id="Metadonnee-TypeMetadonnee" style="stroke:#454645;stroke-width:1.0;"/><text fill="#000000" font-family="Serif" font-size="13" lengthAdjust="spacing" textLength="24" x="400.0921" y="404.8921">type</text><path d="M317.5921,417.2485 L317.5921,485.2485 A3.5,3.5 0 0 0 321.0921,488.7485 L503.0921,488.7485 A3.5,3.5 0 0 0 506.5921,485.2485 L506.5921,423.7485 L496.5921,413.7485 L321.0921,413.7485 A3.5,3.5 0 0 0 317.5921,417.2485 " fill="#7FFFD4" style="stroke:#454645;stroke-width:1.5;"/><path d="M496.5921,413.7485 L496.5921,421.9985 A1.75,1.75 0 0 0 498.3421,423.7485 L506.5921,423.7485 L496.5921,413.7485 " fill="#7FFFD4" style="stroke:#454645;stroke-width:1.5;"/><text fill="#454645" font-family="Serif" font-size="13" lengthAdjust="spacing" textLength="149" x="323.5921" y="432.3706">Le lien entre Metadonnee et</text><text fill="#454645" font-family="Serif" font-size="13" lengthAdjust="spacing" textLength="151" x="323.5921" y="448.8491">TypeMetadonnee permet de</text><text fill="#454645" font-family="Serif" font-size="13" lengthAdjust="spacing" textLength="139" x="323.5921" y="465.3276">d&#233;finir la 'cl&#233;' (ex: "brand")</text><text fill="#454645" font-family="Serif" font-size="13" lengthAdjust="spacing" textLength="168" x="323.5921" y="481.8061">et la 'valeur' (ex: "Krabtronics").</text><text fill="#000000" font-family="Serif" font-size="13" lengthAdjust="spacing" textLength="19" x="296.9109" y="467.8319">0..*</text><text fill="#000000" font-family="Serif" font-size="13" lengthAdjust="spacing" textLength="6" x="297.8265" y="531.2052">1</text></g><!--reverse link Empreinte to Pad--><g id="link_Empreinte_Pad"><path codeLine="85" d="M149.0921,458.57 C149.0921,475.83 149.0921,485.61 149.0921,506.31 " fill="none" id="Empreinte-backto-Pad" style="stroke:#454645;stroke-width:1.0;"/><polygon fill="#454645" points="149.0921,446.57,145.0921,452.57,149.0921,458.57,153.0921,452.57,149.0921,446.57" style="stroke:#454645;stroke-width:1.0;"/><polygon fill="#000000" points="154.0921,472.6793,157.0311,463.6342,151.1532,463.6342,154.0921,472.6793" style="stroke:#000000;stroke-width:1.0;"/><text fill="#000000" font-family="Serif" font-size="13" lengthAdjust="spacing" textLength="26" x="163.0921" y="473.0621">pads</text><text fill="#000000" font-family="Serif" font-size="13" lengthAdjust="spacing" textLength="6" x="142.539" y="467.8319">1</text><text fill="#000000" font-family="Serif" font-size="13" lengthAdjust="spacing" textLength="19" x="128.0687" y="495.585">1..*</text></g><!--link Pad to Port--><g id="link_Pad_Port"><path codeLine="89" d="M136.8421,643.66 C136.8421,663.93 136.8421,685.49 136.8421,703.49 " fill="none" id="Pad-Port" style="stroke:#454645;stroke-width:1.0;"/><text fill="#000000" font-family="Serif" font-size="13" lengthAdjust="spacing" textLength="22" x="195.3421" y="688.1921">port</text><path d="M141.8421,700.5485 L141.8421,752.5485 A3.5,3.5 0 0 0 145.3421,756.0485 L267.3421,756.0485 A3.5,3.5 0 0 0 270.8421,752.5485 L270.8421,707.0485 L260.8421,697.0485 L145.3421,697.0485 A3.5,3.5 0 0 0 141.8421,700.5485 " fill="#7FFFD4" style="stroke:#454645;stroke-width:1.5;"/><path d="M260.8421,697.0485 L260.8421,705.2985 A1.75,1.75 0 0 0 262.5921,707.0485 L270.8421,707.0485 L260.8421,697.0485 " fill="#7FFFD4" style="stroke:#454645;stroke-width:1.5;"/><text fill="#454645" font-family="Serif" font-size="13" lengthAdjust="spacing" textLength="108" x="147.8421" y="715.6706">C'est le lien cl&#233; entre</text><text fill="#454645" font-family="Serif" font-size="13" lengthAdjust="spacing" textLength="106" x="147.8421" y="732.1491">le physique (Pad) et</text><text fill="#454645" font-family="Serif" font-size="13" lengthAdjust="spacing" textLength="88" x="147.8421" y="748.6276">le logique (Port).</text><text fill="#000000" font-family="Serif" font-size="13" lengthAdjust="spacing" textLength="19" x="114.8152" y="664.8651">0..*</text><text fill="#000000" font-family="Serif" font-size="13" lengthAdjust="spacing" textLength="6" x="136.8148" y="692.6014">1</text></g><!--SRC=[VLJDRfj04Bxp55CkZjFQQgueiXHHKaLr72jEqeilQnZRgy0kNPR8LfK7w5lqM3y7BzRP1SnFd5nWcR_zvfjl-AItc22yy9LYGZlPCnSfKoo1b8NFR8CBlOyH58PjNuHhbiVwMWezOvJjBb3njTkAYBb0lKyHfD9RwJW368r6uCSiop23kU8Yv2cBwKnsnmcD0tocMImtES9l1-0p29c01mjDqHldzHWbarHc1FR3g3bTV2h0629k-k5IaFbRVJO9JNgGf0gvq1z3cREeykzCAPclOhIV- -vdpDG6SzKrRbcktnZNKX6V7boRDvKtTvNSBVQPBlwHCqAuBGwQHLA8ua0CNiUuuwiUbmz4_YsMKLXt4SPueeitOIyq60kiYImn57z4dXG7nGnXrNL8fYwBjihDZ1vtZm_sMBxdTp-3U_E-MYnkdW9JrYRNlTgy-y1_k9fzdmPqzeDxtnxkdgwcGGDZNaeJWfr69H3EKabmOmOX2L8nCxQX1JU0cTJeWOyXXumdEVMVKu8g3cjg0qM8KFmb4z0i5C8OGwdGgQGFhd-ibvKk5oul4w8haH76aub5NAko3gKGjC1O7V5ge5VOxp6ks4DDWbSHfpYkYqD5vw2r1QOTZYJq25kojvd6OaQSlP63q-Ix5owSqvtkr_7ut6qjZaUbZzKcxsVqHEI1MUciiPXaW_XOc5bW7JnVhCdeWew6_6QriExioBBJbEf1wS18EWXEv5pO72j63r9pz-augat71f47U3pt4qQARxQwnUPnu5vBU9aXf1uobCBiK-AqcgcgMT3l4Eu84Z5GDVgfFdimHJgW0186IROLZNefUWLIfDKoB2z5H9hdWjiz6OHnSHZ06UuySCsFFtA7I_fXMr-v_RNtXs8hhQJWOUOEnwQvXgsEFcc1CwVnzKT1wqsJe9XICbFJGQZoaBEO7COzcjY1aVDHM0Dc5X0jAsr8LX6wtMVy5oar6ZpEoW6JSerbx9YSBfqj0VH8z0UsUaMbeQFaSod8ThpaZ4eEBQyciho7Z5IEgFWF]--></g></svg>